<svg width="250" height="178" viewBox="0 0 250 178" fill="none" xmlns="http://www.w3.org/2000/svg">
<path fill-rule="evenodd" clip-rule="evenodd" d="M217.4 56.9869C217.115 56.9956 216.828 57 216.541 57C201.077 57 188.541 44.2401 188.541 28.5C188.541 12.7599 201.077 0 216.541 0C227.947 0 237.76 6.94156 242.125 16.9006C250.129 33.0618 251.099 47.1239 247.986 60.7449C245.942 69.6912 239.572 82 222.072 95C214.572 100.572 198.072 105 202.072 94C202.484 92.3512 204.18 90.4942 206.317 88.1546C211.69 82.2721 219.85 73.338 217.4 56.9869ZM2.06379 39.2974C-3.79499 24.7524 3.24654 8.21195 17.7915 2.35317C32.3364 -3.5056 48.8769 3.53593 54.7357 18.0809L100.419 131.493L106.041 116.5C106.59 114.101 107.174 111.715 107.756 109.338L107.756 109.338L107.757 109.337L107.757 109.337C111.422 94.3765 115.007 79.7428 109.041 64L109.085 63.9646L99.1494 39.2974C93.2906 24.7524 100.332 8.21195 114.877 2.35317C129.422 -3.5056 145.962 3.53593 151.821 18.0809L200.362 138.588C206.221 153.133 199.179 169.674 184.635 175.532C170.09 181.391 153.549 174.35 147.69 159.805L126.421 107.001C122.304 140.364 110.403 158.618 96.5411 170.5L96.6171 169.675C94.0719 172.122 91.0247 174.132 87.549 175.532C73.004 181.391 56.4635 174.35 50.6047 159.805L2.06379 39.2974Z" fill="#222222"/>
</svg>

